<?xml version="1.0" encoding="UTF-8"?>
<svg xmlns="http://www.w3.org/2000/svg" width="437" height="533" viewBox="0 0 437 533" fill="red">
  <g style="mix-blend-mode:soft-light">
    <path d="M221.68 378.202L290.624 370.797C296.759 370.151 301.888 376.42 301.335 383.887L292.208 510.799C291.78 516.637 288.009 521.277 283.206 521.8L179.364 532.954C173.229 533.6 168.1 527.331 168.653 519.864L174.712 435.604C175.24 428.107 170.111 421.838 164.001 422.514L95.058 429.92C88.923 430.565 83.7938 424.296 84.3469 416.829L90.4065 332.57C90.9345 325.072 85.8053 318.803 79.6954 319.479L10.7521 326.885C4.61705 327.53 -0.512214 321.261 0.0409414 313.794L9.16801 186.883C9.59545 181.044 13.367 176.404 18.1694 175.882L122.012 164.727C128.147 164.082 133.276 170.351 132.723 177.818L126.663 262.077C126.135 269.575 131.265 275.844 137.374 275.168L206.318 267.762C212.453 267.117 217.582 273.385 217.029 280.853L210.969 365.112C210.441 372.61 215.571 378.878 221.68 378.202ZM345.688 200.435L351.747 116.175C352.275 108.677 347.146 102.409 341.036 103.085L272.093 110.49C265.958 111.136 260.829 104.867 261.382 97.3998L267.442 13.1406C267.97 5.64274 262.84 -0.626004 256.73 0.0500366L152.888 11.2047C148.111 11.7271 144.314 16.3365 143.887 22.2057L134.76 149.117C134.232 156.615 139.361 162.884 145.471 162.208L214.414 154.802C220.549 154.157 225.678 160.425 225.125 167.892L219.066 252.152C218.538 259.65 223.667 265.918 229.777 265.242L298.72 257.837C304.855 257.191 309.984 263.46 309.431 270.927L303.372 355.186C302.844 362.684 307.973 368.953 314.083 368.277L417.925 357.122C422.702 356.6 426.499 351.991 426.926 346.121L436.053 219.21C436.581 211.712 431.452 205.443 425.342 206.119L356.399 213.525C350.264 214.17 345.135 207.902 345.688 200.435Z" fill="red"></path>
  </g>
</svg>
